<?xml version="1.0" encoding="UTF-8"?>
<svg xmlns="http://www.w3.org/2000/svg" viewBox="0 0 390 87.87">
  <path d="m54.28,31.96v1.72s0-33.69,0-33.69h14.09c1.66,0,3,1.34,3,3v84.85s-14.09,0-14.09,0c-1.66,0-3-1.34-3-3v-37.93c0-1.66-1.34-3-3-3h-8.48c-1.27,0-2.4-.8-2.83-1.99l-4.28-11.97h16.58c1.1,0,2,.9,2,2Zm109.95,55.9h14.84c1.47,0,2.72-1.06,2.96-2.51l8.54-51.63,22.52,54.14h5.8l23.58-54.14,7.53,51.57c.22,1.47,1.48,2.57,2.97,2.57h14.79L253.43,2.51c-.24-1.44-1.49-2.5-2.96-2.5h-9.84l-24.37,55.85L192.95,0h-12.38l-16.33,87.86ZM295.33,0h-14.12v84.86c0,1.66,1.34,3,3,3h14.12V3.01c0-1.66-1.34-3-3-3Zm94.67,43.99c0,14.62-6.06,27.27-17.65,35.43-10.27,7.24-19.89,8.43-32.14,8.43h-19.66c-1.66,0-3-1.34-3-3V0h22.92c12.25,0,22.92,1.32,32.67,8.56,10.67,8.03,16.86,20.81,16.86,35.43Zm-17.65,0c0-9.22-3.82-18.18-10.8-23.45-7.11-5.27-15.81-5.79-21.6-5.79h-5.27v58.35h5.27c4.35,0,13.83-.27,21.47-5.8,6.98-5,10.93-13.96,10.93-23.32ZM19.09,57.89h16.58l-4.28-11.97c-.43-1.19-1.56-1.99-2.83-1.99h-8.48c-1.66,0-3-1.34-3-3V3C17.09,1.34,15.75,0,14.09,0H0v84.85c0,1.66,1.34,3,3,3h14.09v-33.68,1.72c0,1.1.9,2,2,2ZM125.79,1.95C125.36.78,124.24,0,122.99,0h-11.37l-34.08,87.85h16.4c1.28,0,2.42-.81,2.84-2.03l21.28-61.99,20.87,61.97c.41,1.22,1.56,2.04,2.84,2.04h16.28L125.79,1.95Z" fill="currentColor"/>
</svg>
