<?xml version="1.0" encoding="UTF-8"?>
<svg id="Layer_2" data-name="Layer 2" xmlns="http://www.w3.org/2000/svg" viewBox="0 0 256 255.97">
  <defs>
    <style>
      .cls-1 { fill: #000; stroke-width: 0px; }
      @media (prefers-color-scheme: dark) {
        .cls-1 { fill: #fff; }
      }
    </style>
  </defs>
  <g id="Layer_2-2" data-name="Layer 2">
    <g id="Layer_1-2" data-name="Layer 1-2">
      <g>
        <path class="cls-1" d="M128.04,255.97c-9.07,0-18.27-.97-27.48-3-33.39-7.33-61.92-27.23-80.34-56.02C1.8,168.16-4.31,133.91,3.03,100.53,18.17,31.61,86.57-12.14,155.47,2.99c68.92,15.14,112.67,83.53,97.53,152.45-13.12,59.71-66.2,100.53-124.97,100.53ZM128,16.03c-51.41,0-97.84,35.71-109.32,87.94h0c-6.42,29.2-1.08,59.16,15.04,84.35,16.11,25.19,41.07,42.59,70.28,49.01,60.28,13.24,120.11-25.03,133.36-85.32,13.24-60.29-25.03-120.12-85.32-133.36-8.06-1.77-16.11-2.62-24.04-2.62Z"/>
        <path class="cls-1" d="M173.98,210.18c-5.91,0-11.87-.65-17.78-1.94-44.24-9.72-72.32-53.61-62.6-97.85h0c9.72-44.23,53.61-72.29,97.84-62.6,21.43,4.71,39.74,17.48,51.57,35.96,11.82,18.48,15.74,40.46,11.03,61.89-4.7,21.43-17.47,39.74-35.95,51.57-13.38,8.56-28.59,12.98-44.1,12.98ZM109.25,113.82h0c-7.82,35.6,14.78,70.94,50.38,78.76,17.26,3.79,34.94.63,49.81-8.89,14.88-9.52,25.15-24.25,28.94-41.5,7.82-35.61-14.78-70.94-50.38-78.76-35.63-7.83-70.93,14.79-78.75,50.38Z"/>
        <path class="cls-1" d="M173.81,153.52c-29.69,0-53.85-24.16-53.85-53.85s24.16-53.85,53.85-53.85,53.85,24.16,53.85,53.85-24.16,53.85-53.85,53.85ZM173.81,61.85c-20.85,0-37.82,16.97-37.82,37.82s16.97,37.82,37.82,37.82,37.82-16.97,37.82-37.82-16.97-37.82-37.82-37.82Z"/>
        <path class="cls-1" d="M156.31,136.01c-20.04,0-36.34-16.3-36.34-36.34s16.3-36.34,36.34-36.34,36.34,16.3,36.34,36.34-16.3,36.34-36.34,36.34ZM156.31,79.35c-11.2,0-20.31,9.11-20.31,20.31s9.11,20.31,20.31,20.31,20.31-9.11,20.31-20.31-9.11-20.31-20.31-20.31Z"/>
      </g>
    </g>
  </g>
</svg>
